<svg width="500" height="500" viewBox="0 0 500 500" fill="none" xmlns="http://www.w3.org/2000/svg">
<rect x="68" y="68" width="364" height="364" stroke="#001D73" stroke-width="4"/>
<rect x="68" y="68" width="364" height="364" stroke="#001D73" stroke-width="4"/>
<path d="M70 221.731L70.3584 222.15L183.053 125.699L306.892 230.563L430 128.646V89.6998L307.11 191.437L182.949 86.3008L70 182.969V221.731Z" fill="#C7D3FD"/>
<path d="M360.358 430L430 372.345V333.399L313.314 430H360.358Z" fill="#5D74B7"/>
<path d="M301.044 430L182.949 330L70 426.668V430L112.245 430L183.053 369.398L254.62 430H301.044Z" fill="#5D74B7"/>
<path d="M70 301.43L70.3584 301.849L183.053 205.398L306.892 310.262L430 208.345V169.399L307.11 271.136L182.949 166L70 262.668V301.43Z" fill="#D1D1D3"/>
<path d="M70 385.43L70.3584 385.849L183.053 289.398L306.892 394.262L430 292.345V253.399L307.11 355.136L182.949 250L70 346.668V385.43Z" fill="#808183"/>
<path d="M103.497 70L70 98.6682V137.43L70.3584 137.849L149.634 70H103.497Z" fill="#5D74B7"/>
<path d="M216.83 70L306.892 146.262L399.011 70H351.967L307.11 107.136L263.254 70H216.83Z" fill="#5D74B7"/>
<path d="M166.59 430H199.481L182.948 416L166.59 430Z" fill="#C7D3FD"/>
<path d="M417.193 430H429.999V419.399L417.193 430Z" fill="#C7D3FD"/>
<path d="M222 280H220V282V394V396H222H307H392H394V394V282V280H392H222Z" fill="white" stroke="#001D73" stroke-width="4"/>
<path d="M222 324.071V284.761L305.11 355.136L392 283.202V322.149L305.209 394H304.582L222 324.071Z" fill="white"/>
<path d="M256.53 394H222V364.761L256.53 394Z" fill="white"/>
<path d="M392 363.202V394H354.799L392 363.202Z" fill="white"/>
<path d="M339.031 282L304.892 310.262L271.516 282H339.031Z" fill="white"/>
<path d="M303.28 345V342.88C303.28 341.547 303.44 340.44 303.76 339.56C304.107 338.653 304.533 337.88 305.04 337.24C305.573 336.6 306.107 336.027 306.64 335.52C307.36 334.853 308 334.2 308.56 333.56C309.12 332.893 309.4 332.027 309.4 330.96C309.4 330.107 309.093 329.44 308.48 328.96C307.893 328.453 307.293 328.2 306.68 328.2C305.907 328.2 305.253 328.387 304.72 328.76C304.213 329.107 303.787 329.56 303.44 330.12C303.12 330.68 302.84 331.267 302.6 331.88L298 329.72C298.16 329.24 298.44 328.627 298.84 327.88C299.24 327.133 299.8 326.387 300.52 325.64C301.267 324.893 302.187 324.267 303.28 323.76C304.4 323.253 305.733 323 307.28 323C308.8 323 310.16 323.267 311.36 323.8C312.587 324.307 313.56 325.107 314.28 326.2C315 327.267 315.36 328.68 315.36 330.44C315.36 331.907 315.16 333.093 314.76 334C314.36 334.907 313.867 335.68 313.28 336.32C312.693 336.933 312.107 337.547 311.52 338.16C310.827 338.853 310.213 339.653 309.68 340.56C309.147 341.44 308.88 342.64 308.88 344.16V345H303.28ZM306.08 353.44C305.12 353.44 304.333 353.187 303.72 352.68C303.107 352.147 302.8 351.453 302.8 350.6C302.8 349.773 303.107 349.08 303.72 348.52C304.36 347.96 305.147 347.68 306.08 347.68C307.013 347.68 307.773 347.96 308.36 348.52C308.973 349.08 309.28 349.773 309.28 350.6C309.28 351.453 308.987 352.147 308.4 352.68C307.813 353.187 307.04 353.44 306.08 353.44Z" fill="black"/>
</svg>
