<svg xmlns="http://www.w3.org/2000/svg" viewBox="0 0 354.3 266.5" enable-background="new 0 0 354.3 266.5"><style>.st0{fill:#fff}.st2{fill:none;stroke:#000;stroke-width:3.0056;stroke-miterlimit:10}</style><path class="st0" d="M210 266.5v-17.7h26v17.7h-26zM240 266.5v-17.7h26v17.7h-26zM270 266.5v-17.7h26v17.7h-26zM300 266.5v-17.7h26v17.7h-26z"/><path d="M0 0.5H354.3V266.5H0z" style="fill:none"/><path class="st2" d="M28 0L28 266.5M58 0L58 266.5M88 0L88 266.5M118 0L118 266.5M148 0L148 266.5M178 0L178 266.5M207.7 0L207.7 266.5M238 0L238 266.5M268 0L268 266.5M298 0L298 266.5M326 0L326 266.5"/><path d="M187.3 137.4H337.6V247.5H187.3z" style="fill:#fff;stroke:#333;stroke-width:2;stroke-miterlimit:10"/><text transform="translate(250 212.65)" style="font-size:51.01px;font-family:'MicrosoftYaHei'">?</text></svg>