<svg  xmlns="http://www.w3.org/2000/svg" viewBox="0 0 149 109"><defs><style>.cls-2{fill:#fff}</style></defs><path d="M461 389v-4h9.67v-16H461v-4h9.67v-16H461v-4h10v-13h4v12.66h16V332h4v12.66h16V332h4v12.66h16V332h4v12.66h16V332h4v12.66h16V332h4v12.66h16V332h4v13h15v4h-14.66v16H610v4h-14.66v16H610v4h-14.66v16H610v4h-14.66v16H610v4h-15v12h-4v-11.67h-16V441h-4v-11.67h-16V441h-4v-11.67h-16V441h-4v-11.67h-16V441h-4v-11.67h-16V441h-4v-11.67h-16V441h-4v-12h-10v-4h9.67v-16H461v-4h9.67v-16zm29.8.37h-15.56v15.35h15.56zm20 0h-15.41v15.39h15.38zm4.46 15.3h15.38v-15.41h-15.41zm20-15.42v15.45h15.35v-15.47zm40.08 0v15.35h15.37v-15.39zm-64.6-24.4v-15.57h-15.41v15.53zm-20.16 60v-15.58h-15.27v15.55zm4.74-15.58v15.38h15.41v-15.41zm35.35 15.67v-15.59H515.4v15.56zm-39.91-75.64h-15.45v15.37h15.47zm44.53 59.82v15.56h15.31v-15.59zm-4.41-59.77h-15.52v15.27h15.54zm19.85 0h-15.39v15.33h15.41zm4.62-.09v15.56h15.35V349.2zm35.35 15.57v-15.51h-15.33v15.45zm-20 44.57h-15.32v15.41h15.38zm4.52-.11v15.45h15.35v-15.51zm-100-24.57h15.38v-15.47h-15.36zm35.67-15.35h-15.54v15.23h15.56zm4.19 15.37h15.53v-15.33H515.1zm20.16-15.46v15.47h15.39v-15.53zm35.53.14H555.4v15.37h15.39zm4.32 15.22h15.55v-15.2h-15.53zm-19.74 4.62v15.56h15.35V389.2z" transform="translate(-461 -332)" style="fill:#333"/><path class="cls-2" d="M610 365h-14.66v-16H610zM610 405h-14.66v-16H610zM610 385h-14.66v-16H610zM610 425h-14.66v-16H610zM491 332v12.66h-16V332zM511 332v12.66h-16V332zM531 332v12.66h-16V332zM551 332v12.66h-16V332zM591 332v12.66h-16V332zM571 332v12.66h-16V332zM610 345h-15v-13h15zM475 441v-11.67h16V441zM495 441v-11.67h16V441zM515 441v-11.67h16V441zM535 441v-11.67h16V441zM555 441v-11.67h16V441zM575 441v-11.67h16V441zM595 441v-12h15v12zM461 349h9.67v16H461zM461 369h9.67v16H461zM461 409h9.67v16H461zM461 389h9.67v16H461zM471 332v13h-10v-13zM461 429h10v12h-10zM490.8 389.37v15.35h-15.56v-15.35zM510.77 389.35v15.39h-15.38v-15.39zM515.23 404.65v-15.39h15.38v15.39zM535.28 389.23h15.35v15.45h-15.35zM575.36 389.21h15.37v15.39h-15.37zM510.76 364.81h-15.43v-15.53h15.43zM490.6 424.82h-15.29v-15.55h15.29zM495.34 409.24h15.41v15.38h-15.41zM530.69 424.91H515.4v-15.56h15.29zM490.78 349.27v15.37h-15.47v-15.37zM535.31 409.09h15.29v15.56h-15.29zM530.9 349.32v15.27h-15.54v-15.27zM550.75 349.29v15.33h-15.41v-15.33zM555.37 349.2h15.35v15.56h-15.35zM590.72 364.77h-15.35v-15.45h15.35zM570.76 409.34v15.41h-15.38v-15.41zM575.28 409.23h15.35v15.45h-15.35zM475.24 384.66v-15.41h15.38v15.41zM510.91 369.31v15.29h-15.56v-15.29zM515.1 384.68v-15.27h15.53v15.27zM535.26 369.22h15.39v15.47h-15.39zM570.79 369.36v15.37H555.4v-15.37zM575.11 384.58v-15.2h15.55v15.2zM555.37 389.2h15.35v15.56h-15.35z" transform="translate(-461 -332)"/><path d="M0 0H149V109H0z" style="fill:none"/></svg>