<svg version="1.1"  xmlns="http://www.w3.org/2000/svg" x="0" y="0" viewBox="0 0 387.3 292.7" xml:space="preserve" enable-background="new 0 0 387.3 292.7"><style>.st0{fill:#fff}.st1{fill:none}.st2,.st3{fill:none;stroke:#333;stroke-width:2;stroke-miterlimit:10}.st3{stroke-width:2.0117}</style><path class="st0" d="M228.7 284.3v-17.7h26v17.7h-26zM258.7 284.3v-17.7h26v17.7h-26zM288.7 284.3v-17.7h26v17.7h-26zM318.7 284.3v-17.7h26v17.7h-26z"/><path class="st1" d="M373 284.3H18.7v-266H373v266z"/><path class="st1" d="M373.4 284.6H18.3V17.9h355.1v266.7zm-354.3-.7h353.6V18.6H19.1v265.3z"/><path class="st2" d="M0 35.8L387.3 35.8M0 41.5L387.3 41.5M0 84.1L387.3 84.1M0 128.1L387.3 128.1M0 171.2L387.3 171.2M0 198.6L387.3 198.6M0 214.9L387.3 214.9M0 230.9L387.3 230.9M0 258L387.3 258M90.2 0L90.2 292.7"/><path class="st3" d="M95.9 0L95.9 292.7M192.8 0L192.8 292.7M273.5 0L273.5 292.7M290.6 0L290.6 292.7M306.6 0L306.6 292.7"/><path d="M206 155.1H356.3V265.2H206z" style="fill:#fff;stroke:#333;stroke-width:2;stroke-miterlimit:10"/><text transform="translate(268.7 230.4)" style="font-size:51.01px;font-family:'MicrosoftYaHei'">?</text></svg>