<svg xmlns="http://www.w3.org/2000/svg" viewBox="0 0 512.25 388.2" xmlns:v="https://vecta.io/nano"><style><![CDATA[.F{isolation:isolate}.H{stroke:#333}.I{stroke-miterlimit:10}.J{stroke-width:.01}]]></style><g fill="none" stroke-width="2" class="H I"><path d="M104.35 124.56l107.11-70M231.69 125l-20.23-70.44M.13 216.11l79.11 10.45"/><path d="M.13 231.44l77.64-5.08m26.72-102.35L78.76 226.49m.48.07l-63.55 67.77"/><path d="M91.8 247l-76.11 47.33m122.44-12.44L15.69 294.33m63.55-67.77L91.8 247"/><path d="M138.13 281.89L91.8 247m147.89 17.44l-101.56 17.45m-8.89-92.45l8.89 92.45"/><path d="M79.24 226.56l50-37.12"/><path d="M91.8 247l37.44-57.56m-24.89-64.88l24.89 64.88m20.45-29.77l-45.34-35.11m127.34.44l-82 34.67m-20.45 29.77l20.45-29.77"/><path d="M183.69 166.33l-54.45 23.11M231.69 125l-48 41.33"/><path d="M149.69 159.67l34 6.66m-54.45 23.11l110.45 75"/><path d="M231.69 125l8 139.44m-56-98.11l56.44 99.11"/><path d="M197.53 365.56l42.16-101.12"/><path d="M487.69 194.06l-290.16 171.5M231.69 125l68 79.56m-88.23-150L293.02 33"/><path d="M231.69 125l61.33-92m94-.22l-94 .22"/><path d="M231.69 125l155.33-92.22m125.11 62.89L231.69 125"/><path d="M387.02 32.78l72.31 68.41"/><path d="M464.58 71.67l-77.56-38.89m78.86 67.72l21.81 93.56"/><path d="M231.69 125l256 69.06m24.44.66l-24.44-.66m-127.05 75.09L384.8 388m-85.11-183.44l60.95 64.59m-120.95-4.71l120.95 4.71M465.88 100.5l-1.3-28.83M360.64 269.15L512.13 288"/></g><g fill="#333" class="H I"><g class="J"><path d="M71.24.15L.31 60.77.26 58.34l17.25-14.75L59.57 7.64l8.8-7.52 2.87.03z"/><path d="M69.98.12l35.84 124.85-1.81.52-9.34-32.56L73.33 18.6 68.03.15l1.95-.03z"/></g><path d="M.25 163.72l104.84-40.24.67 1.76-27.4 10.52-62.58 24.02-15.53 5.97v-2.03z" stroke-width=".1"/><g class="J"><path d="M.28 282.18l16.45 11.94-1.11 1.53-4.27-3.1-9.75-7.09-1.33-.97.01-2.31z"/><path d="M.26 318.01l15.09-24.15 1.6 1-4.33 6.92-9.88 15.81-2.45 3.93-.03-3.51zm.01 48.11l24.12 21.72-2.77.04-4.75-4.28-14.31-12.88-2.28-2.05-.01-2.55z"/><path d="M17.35 293.94l21.69 93.96-1.94-.06-5.53-23.92-12.86-55.72-3.19-13.83 1.83-.43zm121.83-12.07L50.23 387.88l-2.49.02 23.38-27.85 53.36-63.6 13.25-15.79 1.45 1.21z"/><path d="M138.49 279.81l75.67 108.05-2.3.01-18.9-26.99-44.87-64.08-11.14-15.91 1.54-1.08z"/><path d="M197.6 363.82l96.48 24.05-7.73.01-17.79-4.43-57.21-14.26-14.2-3.54.45-1.83zm163.83-95.64l111.62 119.69-2.58.01-27.79-29.81-66.2-70.98-16.43-17.62 1.38-1.29z"/><path d="M471.64 387.87l40.34-67.14.05 3.57-8.91 14.84-23.93 39.82-5.35 8.92-2.2-.01zM512 255.72l-25.02-61.93 1.74-.71 6.5 16.09 14.85 36.73 1.92 4.74.01 5.08z"/><path d="M512.03 170.26l-23.28 24.13-1.36-1.31 6.4-6.63 14.61-15.14 3.63-3.76v2.71zM444.23.13l21.99 71.88-1.8.55-5.76-18.81-13.14-42.95L442.26.14l1.97-.01zm-39.36 0l-17.92 33.71-1.66-.88 4.65-8.76 10.63-19.99 2.17-4.08h2.13z"/><path d="M315.95.1l71.29 31.73-.77 1.72-19.53-8.69-44.57-19.83L311.3.1h4.65zm-36.07.01l14.07 33.11-1.74.74-3.73-8.78-8.52-20.06-2.11-4.98 2.03-.03zM101.8.13l109.18 53.25-.83 1.69-29.26-14.27-66.82-32.59L97.48.13h4.32z"/><path d="M184.73.12l27.52 54-1.68.85-7.26-14.24-16.57-32.51-4.11-8.08 2.1-.02z"/><path d="M249.12.11l-37.21 55.17-1.56-1.05 9.66-14.33 22.07-32.72 4.76-7.06 2.28-.01zM512 63.07l-47.3 9.21-.36-1.86 12.38-2.4 28.27-5.5 7.02-1.37-.01 1.92z"/><path d="M512.03 79.91l-47.86-7.57.29-1.86 12.43 1.97 28.38 4.49 6.74 1.06.02 1.91z"/></g></g><path d="M267.28 205.14h200.48V352H267.28z" fill="#fff" stroke-width="2.67" class="H I"/><text class="F" transform="translate(350.92 305.59)" font-size="68.05" font-family="MicrosoftYaHei,Microsoft YaHei">?</text><path d="M105.11 126.49L.27 60.98l.04-2.2 26.16 16.35L90.27 115l13.33 8.33 1.51 3.16z" fill="#333" class="H I J"/></svg>