<svg  xmlns="http://www.w3.org/2000/svg" viewBox="0 0 169.13 124.02"><defs><style>.cls-1{fill:none;}.cls-2,.cls-3,.cls-4,.cls-5,.cls-6{fill:#333;stroke:#333;stroke-miterlimit:10;}.cls-2{stroke-width:0.02px;}.cls-3{stroke-width:0.02px;}.cls-4{stroke-width:0.02px;}.cls-5{stroke-width:0.02px;}.cls-6{stroke-width:0.02px;}</style></defs><rect class="cls-1" x="0.12" y="0.01" width="169" height="124"/><polygon class="cls-2" points="22 0.01 81.79 62.51 79.67 63.18 19.23 0.01 22 0.01"/><polygon class="cls-3" points="169.12 2.58 81.67 63.99 81.34 61.78 169.12 0.13 169.12 2.58"/><polygon class="cls-4" points="0.12 53.14 82.19 61.97 82.08 63.97 0.01 55.14 0.12 53.14"/><polygon class="cls-5" points="82.25 63.58 0.12 102.13 0.12 99.92 82.19 61.4 82.25 63.58"/><polygon class="cls-6" points="81.52 62.14 169.12 123.57 169.12 124 166.25 124.01 166.11 123.91 79.39 63.09 81.52 62.14"/><polygon class="cls-4" points="82 62.76 58.48 124.01 56.34 124.01 80.1 62.14 82 62.76"/></svg>